#!OML:ASF F:\VICON\USERDATA\INSTALL\Justin_Nancy\Justin_Nancy.ASF
:FULLY-SPECIFIED
:DEGREES
240
root -0.143586 17.482 7.59496 0.427395 -4.93517 -4.71502
lowerback 6.95526 1.47306 4.65352
upperback 0.351635 2.43348 2.96115
thorax -3.47459 1.15507 0.216305
lowerneck -16.6734 -3.3735 -9.0093
upperneck 21.9925 -3.65571 5.68636
head 10.0316 -1.79372 3.01557
rclavicle -2.74323e-014 -4.29375e-014
rhumerus -27.0258 -5.37372 -80.2903
rradius 32.7771
rwrist 3.39487
rhand -14.3533 11.164
rfingers 7.12502
rthumb 11.7884 -18.4843
lclavicle -2.74323e-014 -4.29375e-014
lhumerus -37.7845 10.8715 83.453
lradius 26.4768
lwrist -10.6086
lhand -13.7259 26.4083
lfingers 7.12502
lthumb 12.3934 416.021
rfemur 1.16018 5.65004 30.5799
rtibia 17.9516
rfoot -12.7113 -4.44514
rtoes 0.319582
lfemur -30.7123 1.76298 -14.8413
ltibia 47.3652
lfoot -8.8098 11.2378
ltoes 2.65258
241
root -0.135278 17.4796 7.72469 0.644632 -5.00655 -4.90693
lowerback 7.00268 1.54735 4.93573
upperback 0.284839 2.5622 2.98084
thorax -3.5559 1.212 0.0651696
lowerneck -16.7765 -3.38236 -9.05045
upperneck 21.894 -3.63121 5.63971
head 10.0142 -1.78851 3.00703
rclavicle -3.88127e-014 -1.19271e-014
rhumerus -26.756 -4.80441 -80.3479
rradius 33.083
rwrist 3.38353
rhand -14.3884 11.1085
rfingers 7.12502
rthumb 11.7546 -18.5417
lclavicle -3.88127e-014 -1.19271e-014
lhumerus -37.8616 11.0966 83.3857
lradius 26.2967
lwrist -10.6394
lhand -13.5692 26.7184
lfingers 7.12502
lthumb 12.5445 416.322
rfemur 1.58207 5.7326 30.7695
rtibia 17.5354
rfoot -12.8343 -4.59482
rtoes 0.469819
lfemur -31.1191 1.30077 -14.4262
ltibia 45.3206
lfoot -8.69143 11.4982
ltoes 5.05858
242
root -0.130502 17.4607 7.85525 0.851879 -5.02792 -4.96144
lowerback 7.04117 1.57218 5.00182
upperback 0.193967 2.60894 2.99149
thorax -3.66823 1.23079 0.0324262
lowerneck -16.787 -3.35545 -9.09893
upperneck 21.8743 -3.55947 5.56674
head 10.0031 -1.76738 2.99867
rclavicle 2.31087e-014 -7.15625e-015
rhumerus -26.7894 -3.97773 -80.4529
rradius 33.9142
rwrist 3.28968
rhand -14.3202 10.693
rfingers 7.12502
rthumb 11.8203 -18.9534
lclavicle 2.31087e-014 -7.15625e-015
lhumerus -37.9547 11.5191 83.1998
lradius 25.9358
lwrist -10.9331
lhand -13.4269 26.9293
lfingers 7.12502
lthumb 12.6817 416.524
rfemur 2.05006 5.78316 30.8368
rtibia 17.1133
rfoot -12.8822 -4.74139
rtoes 0.101853
lfemur -31.3563 1.07522 -14.3009
ltibia 43.2372
lfoot -8.3947 11.5838
ltoes 3.05983
243
root -0.129545 17.4374 7.9914 0.981264 -5.14996 -5.01165
lowerback 7.0127 1.62735 4.97965
upperback 0.161176 2.68113 3.01253
thorax -3.68596 1.26644 0.0599908
lowerneck -16.6457 -3.34041 -9.12433
upperneck 21.7903 -3.52804 5.51129
head 9.94373 -1.76236 2.98696
rclavicle -1.14798e-014 -6.75868e-015
rhumerus -26.7355 -3.60758 -80.5501
rradius 34.7062
rwrist 3.4522
rhand -14.4365 10.7385
rfingers 7.12502
rthumb 11.7082 -18.9143
lclavicle -1.14798e-014 -6.75868e-015
lhumerus -37.9884 12.0794 82.9711
lradius 25.5192
lwrist -11.309
lhand -13.472 26.9508
lfingers 7.12502
lthumb 12.6382 416.548
rfemur 2.64555 5.90168 30.9176
rtibia 16.7316
rfoot -12.9716 -4.82902
rtoes 0.274681
lfemur -31.4493 0.959146 -14.1519
ltibia 41.1181
lfoot -7.74118 11.6256
ltoes 1.96166
244
root -0.12387 17.4256 8.1413 1.07815 -5.31178 -5.02809
lowerback 6.8685 1.7306 5.03783
upperback 0.138459 2.81216 2.97637
thorax -3.6196 1.33127 -0.017676
lowerneck -16.6453 -3.36647 -9.15821
upperneck 21.9176 -3.56603 5.53891
head 9.99349 -1.78095 2.99919
rclavicle -3.64273e-014 -1.27222e-014
rhumerus -26.5828 -3.25098 -80.6797
rradius 35.3793
rwrist 2.7566
rhand -13.3635 7.70679
rfingers 7.12502
rthumb 12.7428 -21.8844
lclavicle -3.64273e-014 -1.27222e-014
lhumerus -37.9498 12.1845 82.9302
lradius 25.0611
lwrist -11.0408
lhand -13.7092 26.4344
lfingers 7.12502
lthumb 12.4095 416.046
rfemur 3.28516 5.95156 30.9078
rtibia 16.4124
rfoot -13.1993 -4.82273
rtoes 0.561711
lfemur -31.4193 0.745925 -13.9807
ltibia 39.0008
lfoot -7.14262 11.5423
ltoes 2.06809
245
root -0.119163 17.4132 8.28928 1.22209 -5.38369 -5.19094
lowerback 6.69679 1.80135 5.19344
upperback 0.217396 2.90159 3.00827
thorax -3.43206 1.37816 -0.0717216
lowerneck -17.0755 -3.39998 -9.1342
upperneck 22.031 -3.57006 5.4941
head 10.1145 -1.78094 2.97785
rclavicle -1.81888e-014 1.59028e-015
rhumerus -26.0482 -2.92695 -80.7517
rradius 35.6715
rwrist 1.80862
rhand -13.1326 7.01901
rfingers 7.12502
rthumb 12.9653 -22.5581
lclavicle -1.81888e-014 1.59028e-015
lhumerus -38.0068 12.276 82.9841
lradius 25.1425
lwrist -10.8005
lhand -13.8787 26.1173
lfingers 7.12502
lthumb 12.246 415.739
rfemur 3.93157 5.91232 31.0763
rtibia 15.9711
rfoot -13.37 -4.90018
rtoes 0.177539
lfemur -31.4515 0.295825 -13.5487
ltibia 36.9496
lfoot -6.88028 11.4424
ltoes 2.68259
